{
	"asset":{
		"generator":"Khronos glTF Blender I/O v4.3.47",
		"version":"2.0"
	},
	"scene":0,
	"scenes":[
		{
			"name":"Scene",
			"nodes":[
				0
			]
		}
	],
	"nodes":[
		{
			"mesh":0,
			"name":"heart"
		}
	],
	"meshes":[
		{
			"name":"Heart1",
			"primitives":[
				{
					"attributes":{
						"POSITION":0,
						"NORMAL":1,
						"TEXCOORD_0":2
					},
					"indices":3
				}
			]
		}
	],
	"accessors":[
		{
			"bufferView":0,
			"componentType":5126,
			"count":16807,
			"max":[
				0.12405060231685638,
				0.6806237697601318,
				0.8612712025642395
			],
			"min":[
				-0.12405060976743698,
				-0.8498396873474121,
				-0.8612604141235352
			],
			"type":"VEC3"
		},
		{
			"bufferView":1,
			"componentType":5126,
			"count":16807,
			"type":"VEC3"
		},
		{
			"bufferView":2,
			"componentType":5126,
			"count":16807,
			"type":"VEC2"
		},
		{
			"bufferView":3,
			"componentType":5123,
			"count":16848,
			"type":"SCALAR"
		}
	],
	"bufferViews":[
		{
			"buffer":0,
			"byteLength":201684,
			"byteOffset":0,
			"target":34962
		},
		{
			"buffer":0,
			"byteLength":201684,
			"byteOffset":201684,
			"target":34962
		},
		{
			"buffer":0,
			"byteLength":134456,
			"byteOffset":403368,
			"target":34962
		},
		{
			"buffer":0,
			"byteLength":33696,
			"byteOffset":537824,
			"target":34963
		}
	],
	"buffers":[
		{
			"byteLength":571520,
			"uri":"trialHeart.bin"
		}
	]
}
