{
	"asset":{
		"generator":"Khronos glTF Blender I/O v4.3.47",
		"version":"2.0"
	},
	"scene":0,
	"scenes":[
		{
			"name":"Scene",
			"nodes":[
				0
			]
		}
	],
	"nodes":[
		{
			"mesh":0,
			"name":"heart"
		}
	],
	"meshes":[
		{
			"name":"Heart1",
			"primitives":[
				{
					"attributes":{
						"POSITION":0,
						"NORMAL":1,
						"TEXCOORD_0":2
					},
					"indices":3
				}
			]
		}
	],
	"accessors":[
		{
			"bufferView":0,
			"componentType":5126,
			"count":359424,
			"max":[
				0.12405027449131012,
				0.6806265711784363,
				0.8613091111183167
			],
			"min":[
				-0.12405060231685638,
				-0.8498235940933228,
				-0.8613091111183167
			],
			"type":"VEC3"
		},
		{
			"bufferView":1,
			"componentType":5126,
			"count":359424,
			"type":"VEC3"
		},
		{
			"bufferView":2,
			"componentType":5126,
			"count":359424,
			"type":"VEC2"
		},
		{
			"bufferView":3,
			"componentType":5125,
			"count":359424,
			"type":"SCALAR"
		}
	],
	"bufferViews":[
		{
			"buffer":0,
			"byteLength":4313088,
			"byteOffset":0,
			"target":34962
		},
		{
			"buffer":0,
			"byteLength":4313088,
			"byteOffset":4313088,
			"target":34962
		},
		{
			"buffer":0,
			"byteLength":2875392,
			"byteOffset":8626176,
			"target":34962
		},
		{
			"buffer":0,
			"byteLength":1437696,
			"byteOffset":11501568,
			"target":34963
		}
	],
	"buffers":[
		{
			"byteLength":12939264,
			"uri":"untitled.bin"
		}
	]
}
