{
	"asset":{
		"generator":"Khronos glTF Blender I/O v4.3.47",
		"version":"2.0"
	},
	"scene":0,
	"scenes":[
		{
			"name":"Scene",
			"nodes":[
				0,
				1,
				2,
				3,
				4
			]
		}
	],
	"nodes":[
		{
			"mesh":0,
			"name":"Outer"
		},
		{
			"mesh":1,
			"name":"Mid2"
		},
		{
			"mesh":2,
			"name":"Inner"
		},
		{
			"name":"Cube"
		},
		{
			"mesh":3,
			"name":"Mid1"
		}
	],
	"meshes":[
		{
			"name":"Mesh_0",
			"primitives":[
				{
					"attributes":{
						"POSITION":0,
						"NORMAL":1,
						"TEXCOORD_0":2
					},
					"indices":3
				}
			]
		},
		{
			"name":"Mesh_1",
			"primitives":[
				{
					"attributes":{
						"POSITION":4,
						"NORMAL":5,
						"TEXCOORD_0":6
					},
					"indices":3
				}
			]
		},
		{
			"name":"Mesh_2",
			"primitives":[
				{
					"attributes":{
						"POSITION":7,
						"NORMAL":8,
						"TEXCOORD_0":9
					},
					"indices":3
				}
			]
		},
		{
			"name":"Mesh_2.001",
			"primitives":[
				{
					"attributes":{
						"POSITION":10,
						"NORMAL":11,
						"TEXCOORD_0":12
					},
					"indices":3
				}
			]
		}
	],
	"accessors":[
		{
			"bufferView":0,
			"componentType":5126,
			"count":1044,
			"max":[
				2.7075002193450928,
				2.7075002193450928,
				0.6840000152587891
			],
			"min":[
				-2.7075002193450928,
				-2.7075002193450928,
				0
			],
			"type":"VEC3"
		},
		{
			"bufferView":1,
			"componentType":5126,
			"count":1044,
			"type":"VEC3"
		},
		{
			"bufferView":2,
			"componentType":5126,
			"count":1044,
			"type":"VEC2"
		},
		{
			"bufferView":3,
			"componentType":5123,
			"count":4608,
			"type":"SCALAR"
		},
		{
			"bufferView":4,
			"componentType":5126,
			"count":1044,
			"max":[
				2.565000057220459,
				2.565000057220459,
				0.6480000019073486
			],
			"min":[
				-2.565000057220459,
				-2.565000057220459,
				0
			],
			"type":"VEC3"
		},
		{
			"bufferView":5,
			"componentType":5126,
			"count":1044,
			"type":"VEC3"
		},
		{
			"bufferView":6,
			"componentType":5126,
			"count":1044,
			"type":"VEC2"
		},
		{
			"bufferView":7,
			"componentType":5126,
			"count":1044,
			"max":[
				2.430000066757202,
				2.430000066757202,
				0.6480000019073486
			],
			"min":[
				-2.430000066757202,
				-2.430000066757202,
				0
			],
			"type":"VEC3"
		},
		{
			"bufferView":8,
			"componentType":5126,
			"count":1044,
			"type":"VEC3"
		},
		{
			"bufferView":9,
			"componentType":5126,
			"count":1044,
			"type":"VEC2"
		},
		{
			"bufferView":10,
			"componentType":5126,
			"count":1044,
			"max":[
				2.430000066757202,
				2.430000066757202,
				0.6480000019073486
			],
			"min":[
				-2.430000066757202,
				-2.430000066757202,
				0
			],
			"type":"VEC3"
		},
		{
			"bufferView":11,
			"componentType":5126,
			"count":1044,
			"type":"VEC3"
		},
		{
			"bufferView":12,
			"componentType":5126,
			"count":1044,
			"type":"VEC2"
		}
	],
	"bufferViews":[
		{
			"buffer":0,
			"byteLength":12528,
			"byteOffset":0,
			"target":34962
		},
		{
			"buffer":0,
			"byteLength":12528,
			"byteOffset":12528,
			"target":34962
		},
		{
			"buffer":0,
			"byteLength":8352,
			"byteOffset":25056,
			"target":34962
		},
		{
			"buffer":0,
			"byteLength":9216,
			"byteOffset":33408,
			"target":34963
		},
		{
			"buffer":0,
			"byteLength":12528,
			"byteOffset":42624,
			"target":34962
		},
		{
			"buffer":0,
			"byteLength":12528,
			"byteOffset":55152,
			"target":34962
		},
		{
			"buffer":0,
			"byteLength":8352,
			"byteOffset":67680,
			"target":34962
		},
		{
			"buffer":0,
			"byteLength":12528,
			"byteOffset":76032,
			"target":34962
		},
		{
			"buffer":0,
			"byteLength":12528,
			"byteOffset":88560,
			"target":34962
		},
		{
			"buffer":0,
			"byteLength":8352,
			"byteOffset":101088,
			"target":34962
		},
		{
			"buffer":0,
			"byteLength":12528,
			"byteOffset":109440,
			"target":34962
		},
		{
			"buffer":0,
			"byteLength":12528,
			"byteOffset":121968,
			"target":34962
		},
		{
			"buffer":0,
			"byteLength":8352,
			"byteOffset":134496,
			"target":34962
		}
	],
	"buffers":[
		{
			"byteLength":142848,
			"uri":"ayre4.bin"
		}
	]
}
