<svg width="1263" height="308" viewBox="0 0 1263 308" fill="none" xmlns="http://www.w3.org/2000/svg">
<path d="M38.4668 48.5361L60.4932 6.19727H76.9336L46.084 62.9453V99H30.9131V63.5166L0 6.19727H16.5674L38.4668 48.5361ZM149.805 63.707C149.805 69.5469 149.043 74.7308 147.52 79.2588C145.996 83.7868 143.774 87.6165 140.854 90.748C137.935 93.8372 134.422 96.207 130.317 97.8574C126.213 99.4655 121.579 100.27 116.416 100.27C111.592 100.27 107.17 99.4655 103.149 97.8574C99.1292 96.207 95.638 93.8372 92.6758 90.748C89.7559 87.6165 87.4919 83.7868 85.8838 79.2588C84.2757 74.7308 83.4717 69.5469 83.4717 63.707C83.4717 55.9629 84.8047 49.4036 87.4707 44.0293C90.179 38.6126 94.0299 34.4867 99.0234 31.6514C104.017 28.8161 109.963 27.3984 116.86 27.3984C123.335 27.3984 129.048 28.8161 133.999 31.6514C138.95 34.4867 142.822 38.6126 145.615 44.0293C148.408 49.446 149.805 56.0052 149.805 63.707ZM98.833 63.707C98.833 68.8275 99.4466 73.2074 100.674 76.8467C101.943 80.486 103.89 83.279 106.514 85.2256C109.137 87.1299 112.523 88.082 116.67 88.082C120.817 88.082 124.202 87.1299 126.826 85.2256C129.45 83.279 131.375 80.486 132.603 76.8467C133.83 73.2074 134.443 68.8275 134.443 63.707C134.443 58.5866 133.83 54.249 132.603 50.6943C131.375 47.0973 129.45 44.3678 126.826 42.5059C124.202 40.6016 120.796 39.6494 116.606 39.6494C110.428 39.6494 105.921 41.723 103.086 45.8701C100.251 50.0173 98.833 55.9629 98.833 63.707ZM228.198 28.7314V99H216.455L214.424 89.542H213.599C212.118 91.9541 210.234 93.9642 207.949 95.5723C205.664 97.138 203.125 98.3018 200.332 99.0635C197.539 99.8675 194.598 100.27 191.509 100.27C186.219 100.27 181.691 99.3809 177.925 97.6035C174.201 95.7839 171.344 92.9909 169.355 89.2246C167.367 85.4583 166.372 80.5918 166.372 74.625V28.7314H181.353V71.832C181.353 77.291 182.453 81.3747 184.653 84.083C186.896 86.7913 190.366 88.1455 195.063 88.1455C199.591 88.1455 203.188 87.2145 205.854 85.3525C208.521 83.4906 210.404 80.7399 211.504 77.1006C212.646 73.4613 213.218 68.9967 213.218 63.707V28.7314H228.198ZM285.2 27.3984C286.385 27.3984 287.676 27.4619 289.072 27.5889C290.469 27.7158 291.675 27.8851 292.69 28.0967L291.294 42.0615C290.405 41.8076 289.305 41.6172 287.993 41.4902C286.724 41.3633 285.581 41.2998 284.565 41.2998C281.899 41.2998 279.36 41.7441 276.948 42.6328C274.536 43.4792 272.399 44.791 270.537 46.5684C268.675 48.3034 267.215 50.4827 266.157 53.1064C265.099 55.7301 264.57 58.777 264.57 62.2471V99H249.59V28.7314H261.27L263.301 41.1094H263.999C265.396 38.6126 267.131 36.3275 269.204 34.2539C271.278 32.1803 273.647 30.5299 276.313 29.3027C279.022 28.0332 281.984 27.3984 285.2 27.3984ZM416.343 51.71C416.343 62.1624 414.396 70.901 410.503 77.9258C406.61 84.9082 400.96 90.1768 393.555 93.7314C386.149 97.2438 377.22 99 366.768 99H340.996V6.19727H369.561C379.167 6.19727 387.461 7.93229 394.443 11.4023C401.426 14.8301 406.821 19.9294 410.63 26.7002C414.438 33.4287 416.343 41.7653 416.343 51.71ZM400.474 52.1543C400.474 44.5371 399.268 38.2741 396.855 33.3652C394.486 28.4564 390.973 24.8171 386.318 22.4473C381.706 20.0352 376.014 18.8291 369.243 18.8291H356.23V86.2412H367.021C378.236 86.2412 386.615 83.3848 392.158 77.6719C397.702 71.959 400.474 63.4531 400.474 52.1543ZM449.731 28.7314V99H434.814V28.7314H449.731ZM442.368 1.81738C444.653 1.81738 446.621 2.43099 448.271 3.6582C449.964 4.88542 450.811 7.0013 450.811 10.0059C450.811 12.9681 449.964 15.084 448.271 16.3535C446.621 17.5807 444.653 18.1943 442.368 18.1943C439.998 18.1943 437.988 17.5807 436.338 16.3535C434.73 15.084 433.926 12.9681 433.926 10.0059C433.926 7.0013 434.73 4.88542 436.338 3.6582C437.988 2.43099 439.998 1.81738 442.368 1.81738ZM491.182 130.23C481.66 130.23 474.36 128.517 469.282 125.089C464.204 121.661 461.665 116.858 461.665 110.68C461.665 106.363 463.019 102.703 465.728 99.6982C468.436 96.736 472.308 94.6836 477.344 93.541C475.439 92.6947 473.789 91.3828 472.393 89.6055C471.038 87.7858 470.361 85.7757 470.361 83.5752C470.361 80.9515 471.102 78.7087 472.583 76.8467C474.064 74.9847 476.286 73.1862 479.248 71.4512C475.566 69.8854 472.604 67.3464 470.361 63.834C468.161 60.2793 467.061 56.111 467.061 51.3291C467.061 46.251 468.14 41.9346 470.298 38.3799C472.456 34.7829 475.609 32.0534 479.756 30.1914C483.903 28.2871 488.918 27.335 494.8 27.335C496.069 27.335 497.445 27.4196 498.926 27.5889C500.449 27.7158 501.846 27.8851 503.115 28.0967C504.427 28.266 505.422 28.4564 506.099 28.668H530.41V36.9834L518.477 39.2051C519.619 40.8132 520.529 42.654 521.206 44.7275C521.883 46.7588 522.222 48.9805 522.222 51.3926C522.222 58.6712 519.704 64.4053 514.668 68.5947C509.674 72.7419 502.777 74.8154 493.975 74.8154C491.859 74.7308 489.806 74.5615 487.817 74.3076C486.294 75.2386 485.13 76.2754 484.326 77.418C483.522 78.5182 483.12 79.7666 483.12 81.1631C483.12 82.3057 483.522 83.2367 484.326 83.9561C485.13 84.6331 486.315 85.141 487.881 85.4795C489.489 85.818 491.436 85.9873 493.721 85.9873H505.845C513.547 85.9873 519.429 87.6165 523.491 90.875C527.554 94.1335 529.585 98.9154 529.585 105.221C529.585 113.219 526.284 119.376 519.683 123.692C513.081 128.051 503.581 130.23 491.182 130.23ZM491.753 119.757C496.958 119.757 501.338 119.249 504.893 118.233C508.447 117.218 511.134 115.758 512.954 113.854C514.774 111.992 515.684 109.77 515.684 107.188C515.684 104.903 515.112 103.147 513.97 101.92C512.827 100.693 511.113 99.8464 508.828 99.3809C506.543 98.9154 503.708 98.6826 500.322 98.6826H489.277C486.527 98.6826 484.093 99.1058 481.978 99.9521C479.862 100.841 478.211 102.11 477.026 103.761C475.884 105.411 475.312 107.4 475.312 109.728C475.312 112.944 476.73 115.419 479.565 117.154C482.443 118.889 486.506 119.757 491.753 119.757ZM494.673 65.04C499.032 65.04 502.269 63.8551 504.385 61.4854C506.501 59.0732 507.559 55.6878 507.559 51.3291C507.559 46.5895 506.458 43.0348 504.258 40.665C502.1 38.2952 498.883 37.1104 494.609 37.1104C490.42 37.1104 487.225 38.3164 485.024 40.7285C482.866 43.1406 481.787 46.7165 481.787 51.4561C481.787 55.7301 482.866 59.0732 485.024 61.4854C487.225 63.8551 490.441 65.04 494.673 65.04ZM558.149 28.7314V99H543.232V28.7314H558.149ZM550.786 1.81738C553.071 1.81738 555.039 2.43099 556.689 3.6582C558.382 4.88542 559.229 7.0013 559.229 10.0059C559.229 12.9681 558.382 15.084 556.689 16.3535C555.039 17.5807 553.071 18.1943 550.786 18.1943C548.416 18.1943 546.406 17.5807 544.756 16.3535C543.148 15.084 542.344 12.9681 542.344 10.0059C542.344 7.0013 543.148 4.88542 544.756 3.6582C546.406 2.43099 548.416 1.81738 550.786 1.81738ZM605.693 88.209C607.64 88.209 609.565 88.0397 611.47 87.7012C613.374 87.3203 615.109 86.876 616.675 86.3682V97.667C615.024 98.3864 612.887 99 610.264 99.5078C607.64 100.016 604.91 100.27 602.075 100.27C598.097 100.27 594.521 99.6136 591.348 98.3018C588.174 96.9476 585.656 94.6413 583.794 91.3828C581.932 88.1243 581.001 83.6175 581.001 77.8623V40.0938H571.416V33.4287L581.699 28.1602L586.587 13.1162H595.981V28.7314H616.104V40.0938H595.981V77.6719C595.981 81.2266 596.87 83.8714 598.647 85.6064C600.425 87.3415 602.773 88.209 605.693 88.209ZM658.506 27.3984C667.393 27.3984 674.1 29.3662 678.628 33.3018C683.198 37.2373 685.483 43.3734 685.483 51.71V99H674.883L672.026 89.0342H671.519C669.53 91.5732 667.477 93.668 665.361 95.3184C663.245 96.9688 660.791 98.196 657.998 99C655.247 99.8464 651.883 100.27 647.905 100.27C643.716 100.27 639.971 99.5078 636.67 97.9844C633.369 96.4186 630.767 94.0488 628.862 90.875C626.958 87.7012 626.006 83.681 626.006 78.8145C626.006 71.5781 628.693 66.1403 634.067 62.501C639.484 58.8617 647.651 56.8516 658.569 56.4707L670.757 56.0264V52.3447C670.757 47.4782 669.614 44.0081 667.329 41.9346C665.086 39.861 661.912 38.8242 657.808 38.8242C654.295 38.8242 650.889 39.332 647.588 40.3477C644.287 41.3633 641.071 42.6117 637.939 44.0928L633.115 33.5557C636.543 31.736 640.436 30.2549 644.795 29.1123C649.196 27.9697 653.766 27.3984 658.506 27.3984ZM670.693 65.4209L661.616 65.7383C654.168 65.9922 648.942 67.2617 645.938 69.5469C642.933 71.832 641.431 74.9635 641.431 78.9414C641.431 82.4115 642.467 84.9505 644.541 86.5586C646.615 88.1243 649.344 88.9072 652.729 88.9072C657.892 88.9072 662.166 87.4473 665.552 84.5273C668.979 81.5651 670.693 77.2275 670.693 71.5146V65.4209ZM721.348 99H706.367V0.230469H721.348V99ZM815.42 48.5996H850.078V95.1914C845.212 96.7995 840.176 98.0479 834.971 98.9365C829.766 99.8252 823.926 100.27 817.451 100.27C808.014 100.27 800.016 98.4076 793.457 94.6836C786.94 90.9173 781.989 85.4795 778.604 78.3701C775.218 71.2184 773.525 62.6068 773.525 52.5352C773.525 42.8444 775.409 34.4443 779.175 27.335C782.941 20.1833 788.421 14.6608 795.615 10.7676C802.809 6.83203 811.527 4.86426 821.768 4.86426C826.803 4.86426 831.67 5.37207 836.367 6.3877C841.107 7.361 845.444 8.71517 849.38 10.4502L844.048 23.0186C840.916 21.5374 837.404 20.2891 833.511 19.2734C829.618 18.2578 825.576 17.75 821.387 17.75C814.743 17.75 809.009 19.1888 804.185 22.0664C799.403 24.944 795.721 29.0065 793.14 34.2539C790.558 39.459 789.268 45.6162 789.268 52.7256C789.268 59.6234 790.304 65.6748 792.378 70.8799C794.451 76.085 797.689 80.1475 802.09 83.0674C806.533 85.945 812.267 87.3838 819.292 87.3838C822.804 87.3838 825.788 87.1934 828.242 86.8125C830.697 86.4316 832.961 86.0085 835.034 85.543V61.6123H815.42V48.5996ZM906.382 27.3984C907.567 27.3984 908.857 27.4619 910.254 27.5889C911.65 27.7158 912.856 27.8851 913.872 28.0967L912.476 42.0615C911.587 41.8076 910.487 41.6172 909.175 41.4902C907.905 41.3633 906.763 41.2998 905.747 41.2998C903.081 41.2998 900.542 41.7441 898.13 42.6328C895.718 43.4792 893.581 44.791 891.719 46.5684C889.857 48.3034 888.397 50.4827 887.339 53.1064C886.281 55.7301 885.752 58.777 885.752 62.2471V99H870.771V28.7314H882.451L884.482 41.1094H885.181C886.577 38.6126 888.312 36.3275 890.386 34.2539C892.459 32.1803 894.829 30.5299 897.495 29.3027C900.203 28.0332 903.166 27.3984 906.382 27.3984ZM989.092 63.707C989.092 69.5469 988.33 74.7308 986.807 79.2588C985.283 83.7868 983.062 87.6165 980.142 90.748C977.222 93.8372 973.709 96.207 969.604 97.8574C965.5 99.4655 960.866 100.27 955.703 100.27C950.879 100.27 946.457 99.4655 942.437 97.8574C938.416 96.207 934.925 93.8372 931.963 90.748C929.043 87.6165 926.779 83.7868 925.171 79.2588C923.563 74.7308 922.759 69.5469 922.759 63.707C922.759 55.9629 924.092 49.4036 926.758 44.0293C929.466 38.6126 933.317 34.4867 938.311 31.6514C943.304 28.8161 949.25 27.3984 956.147 27.3984C962.622 27.3984 968.335 28.8161 973.286 31.6514C978.237 34.4867 982.109 38.6126 984.902 44.0293C987.695 49.446 989.092 56.0052 989.092 63.707ZM938.12 63.707C938.12 68.8275 938.734 73.2074 939.961 76.8467C941.23 80.486 943.177 83.279 945.801 85.2256C948.424 87.1299 951.81 88.082 955.957 88.082C960.104 88.082 963.49 87.1299 966.113 85.2256C968.737 83.279 970.662 80.486 971.89 76.8467C973.117 73.2074 973.73 68.8275 973.73 63.707C973.73 58.5866 973.117 54.249 971.89 50.6943C970.662 47.0973 968.737 44.3678 966.113 42.5059C963.49 40.6016 960.083 39.6494 955.894 39.6494C949.715 39.6494 945.208 41.723 942.373 45.8701C939.538 50.0173 938.12 55.9629 938.12 63.707ZM1063.68 98.9365L1054.79 66.2461C1054.37 64.638 1053.86 62.6914 1053.27 60.4062C1052.67 58.1211 1052.08 55.7725 1051.49 53.3604C1050.9 50.9059 1050.35 48.6419 1049.84 46.5684C1049.37 44.4948 1049.01 42.8867 1048.76 41.7441H1048.25C1048.04 42.8867 1047.7 44.4948 1047.24 46.5684C1046.77 48.6419 1046.24 50.9059 1045.65 53.3604C1045.06 55.8148 1044.46 58.2057 1043.87 60.5332C1043.32 62.8607 1042.81 64.8496 1042.35 66.5L1033.02 98.9365H1016.64L996.963 28.668H1012.07L1021.21 63.5801C1021.8 65.9499 1022.37 68.5101 1022.92 71.2607C1023.52 74.0114 1024.03 76.6351 1024.45 79.1318C1024.87 81.6286 1025.19 83.681 1025.4 85.2891H1025.91C1026.08 84.1465 1026.31 82.7077 1026.61 80.9727C1026.9 79.1953 1027.24 77.3545 1027.62 75.4502C1028 73.5036 1028.38 71.6839 1028.76 69.9912C1029.15 68.2562 1029.51 66.8597 1029.84 65.8018L1040.63 28.668H1056.95L1067.29 65.8018C1067.76 67.4098 1068.27 69.4411 1068.82 71.8955C1069.37 74.3076 1069.86 76.7409 1070.28 79.1953C1070.74 81.6074 1071.04 83.6175 1071.17 85.2256H1071.67C1071.84 83.7868 1072.14 81.8402 1072.56 79.3857C1073.03 76.889 1073.56 74.2441 1074.15 71.4512C1074.74 68.6159 1075.36 65.9922 1075.99 63.5801L1085.32 28.668H1100.18L1080.37 98.9365H1063.68ZM1138.39 88.209C1140.34 88.209 1142.26 88.0397 1144.17 87.7012C1146.07 87.3203 1147.8 86.876 1149.37 86.3682V97.667C1147.72 98.3864 1145.58 99 1142.96 99.5078C1140.34 100.016 1137.61 100.27 1134.77 100.27C1130.79 100.27 1127.22 99.6136 1124.04 98.3018C1120.87 96.9476 1118.35 94.6413 1116.49 91.3828C1114.63 88.1243 1113.7 83.6175 1113.7 77.8623V40.0938H1104.11V33.4287L1114.39 28.1602L1119.28 13.1162H1128.68V28.7314H1148.8V40.0938H1128.68V77.6719C1128.68 81.2266 1129.57 83.8714 1131.34 85.6064C1133.12 87.3415 1135.47 88.209 1138.39 88.209ZM1178.57 0.230469V25.0498C1178.57 27.6312 1178.48 30.1491 1178.32 32.6035C1178.19 35.0579 1178.04 36.9622 1177.87 38.3164H1178.7C1180.18 35.862 1182 33.8519 1184.16 32.2861C1186.31 30.6781 1188.73 29.472 1191.39 28.668C1194.1 27.8639 1196.98 27.4619 1200.02 27.4619C1205.4 27.4619 1209.97 28.3717 1213.74 30.1914C1217.5 31.9688 1220.38 34.7406 1222.37 38.5068C1224.4 42.2731 1225.42 47.1608 1225.42 53.1699V99H1210.5V55.9629C1210.5 50.5039 1209.38 46.4202 1207.13 43.7119C1204.89 40.9613 1201.42 39.5859 1196.72 39.5859C1192.2 39.5859 1188.6 40.5381 1185.93 42.4424C1183.31 44.3044 1181.43 47.0762 1180.28 50.7578C1179.14 54.3971 1178.57 58.8405 1178.57 64.0879V99H1163.65V0.230469H1178.57ZM1261.34 83.8926L1262.23 85.3525C1261.47 88.3994 1260.5 91.679 1259.31 95.1914C1258.13 98.7038 1256.84 102.216 1255.44 105.729C1254.04 109.283 1252.63 112.626 1251.19 115.758H1240.27C1241.16 112.33 1242 108.733 1242.81 104.967C1243.65 101.243 1244.42 97.5612 1245.09 93.9219C1245.81 90.2402 1246.38 86.8971 1246.81 83.8926H1261.34ZM72.8711 240.707C72.8711 246.547 72.1094 251.731 70.5859 256.259C69.0625 260.787 66.8408 264.617 63.9209 267.748C61.001 270.837 57.4886 273.207 53.3838 274.857C49.279 276.465 44.6452 277.27 39.4824 277.27C34.6582 277.27 30.236 276.465 26.2158 274.857C22.1956 273.207 18.7044 270.837 15.7422 267.748C12.8223 264.617 10.5583 260.787 8.9502 256.259C7.34212 251.731 6.53809 246.547 6.53809 240.707C6.53809 232.963 7.87109 226.404 10.5371 221.029C13.2454 215.613 17.0964 211.487 22.0898 208.651C27.0833 205.816 33.029 204.398 39.9268 204.398C46.4014 204.398 52.1143 205.816 57.0654 208.651C62.0166 211.487 65.8887 215.613 68.6816 221.029C71.4746 226.446 72.8711 233.005 72.8711 240.707ZM21.8994 240.707C21.8994 245.827 22.513 250.207 23.7402 253.847C25.0098 257.486 26.9564 260.279 29.5801 262.226C32.2038 264.13 35.5892 265.082 39.7363 265.082C43.8835 265.082 47.2689 264.13 49.8926 262.226C52.5163 260.279 54.4417 257.486 55.6689 253.847C56.8962 250.207 57.5098 245.827 57.5098 240.707C57.5098 235.587 56.8962 231.249 55.6689 227.694C54.4417 224.097 52.5163 221.368 49.8926 219.506C47.2689 217.602 43.8623 216.649 39.6729 216.649C33.4945 216.649 28.9876 218.723 26.1523 222.87C23.3171 227.017 21.8994 232.963 21.8994 240.707ZM151.265 205.731V276H139.521L137.49 266.542H136.665C135.184 268.954 133.301 270.964 131.016 272.572C128.73 274.138 126.191 275.302 123.398 276.063C120.605 276.868 117.664 277.27 114.575 277.27C109.285 277.27 104.757 276.381 100.991 274.604C97.2673 272.784 94.4108 269.991 92.4219 266.225C90.4329 262.458 89.4385 257.592 89.4385 251.625V205.731H104.419V248.832C104.419 254.291 105.519 258.375 107.72 261.083C109.963 263.791 113.433 265.146 118.13 265.146C122.658 265.146 126.255 264.215 128.921 262.353C131.587 260.491 133.47 257.74 134.57 254.101C135.713 250.461 136.284 245.997 136.284 240.707V205.731H151.265ZM208.267 204.398C209.451 204.398 210.742 204.462 212.139 204.589C213.535 204.716 214.741 204.885 215.757 205.097L214.36 219.062C213.472 218.808 212.371 218.617 211.06 218.49C209.79 218.363 208.647 218.3 207.632 218.3C204.966 218.3 202.427 218.744 200.015 219.633C197.603 220.479 195.465 221.791 193.604 223.568C191.742 225.303 190.282 227.483 189.224 230.106C188.166 232.73 187.637 235.777 187.637 239.247V276H172.656V205.731H184.336L186.367 218.109H187.065C188.462 215.613 190.197 213.327 192.271 211.254C194.344 209.18 196.714 207.53 199.38 206.303C202.088 205.033 205.05 204.398 208.267 204.398ZM264.062 276V183.197H279.297V276H264.062ZM381.685 204.398C389.556 204.398 395.48 206.43 399.458 210.492C403.478 214.555 405.488 221.072 405.488 230.043V276H390.571V232.709C390.571 227.377 389.535 223.357 387.461 220.648C385.387 217.94 382.235 216.586 378.003 216.586C372.078 216.586 367.804 218.49 365.181 222.299C362.599 226.065 361.309 231.545 361.309 238.739V276H346.392V232.709C346.392 229.154 345.926 226.192 344.995 223.822C344.106 221.41 342.731 219.612 340.869 218.427C339.007 217.2 336.659 216.586 333.823 216.586C329.718 216.586 326.439 217.517 323.984 219.379C321.572 221.241 319.837 223.992 318.779 227.631C317.721 231.228 317.192 235.65 317.192 240.897V276H302.275V205.731H313.892L315.986 215.189H316.812C318.25 212.735 320.028 210.725 322.144 209.159C324.302 207.551 326.693 206.366 329.316 205.604C331.94 204.8 334.67 204.398 337.505 204.398C342.752 204.398 347.174 205.329 350.771 207.191C354.368 209.011 357.056 211.804 358.833 215.57H359.976C362.176 211.762 365.244 208.948 369.18 207.128C373.115 205.308 377.284 204.398 381.685 204.398ZM462.363 204.398C470.7 204.398 477.386 207.445 482.422 213.539C487.5 219.633 490.039 228.689 490.039 240.707C490.039 248.663 488.854 255.37 486.484 260.829C484.157 266.246 480.877 270.351 476.646 273.144C472.456 275.894 467.568 277.27 461.982 277.27C458.428 277.27 455.339 276.804 452.715 275.873C450.091 274.942 447.848 273.736 445.986 272.255C444.124 270.731 442.559 269.081 441.289 267.304H440.4C440.612 268.996 440.802 270.88 440.972 272.953C441.183 274.984 441.289 276.846 441.289 278.539V307.167H426.309V205.731H438.496L440.591 215.443H441.289C442.601 213.454 444.188 211.614 446.05 209.921C447.954 208.228 450.239 206.895 452.905 205.922C455.614 204.906 458.766 204.398 462.363 204.398ZM458.364 216.586C454.259 216.586 450.959 217.411 448.462 219.062C446.007 220.67 444.209 223.103 443.066 226.361C441.966 229.62 441.374 233.703 441.289 238.612V240.707C441.289 245.912 441.818 250.334 442.876 253.974C443.976 257.571 445.775 260.321 448.271 262.226C450.811 264.088 454.238 265.019 458.555 265.019C462.194 265.019 465.199 264.024 467.568 262.035C469.98 260.046 471.779 257.211 472.964 253.529C474.149 249.848 474.741 245.51 474.741 240.517C474.741 232.942 473.387 227.06 470.679 222.87C468.013 218.681 463.908 216.586 458.364 216.586ZM568.56 205.731V276H556.816L554.785 266.542H553.96C552.479 268.954 550.596 270.964 548.311 272.572C546.025 274.138 543.486 275.302 540.693 276.063C537.9 276.868 534.959 277.27 531.87 277.27C526.58 277.27 522.052 276.381 518.286 274.604C514.562 272.784 511.706 269.991 509.717 266.225C507.728 262.458 506.733 257.592 506.733 251.625V205.731H521.714V248.832C521.714 254.291 522.814 258.375 525.015 261.083C527.257 263.791 530.728 265.146 535.425 265.146C539.953 265.146 543.55 264.215 546.216 262.353C548.882 260.491 550.765 257.74 551.865 254.101C553.008 250.461 553.579 245.997 553.579 240.707V205.731H568.56ZM604.932 276H589.951V177.23H604.932V276ZM673.486 255.941C673.486 260.554 672.365 264.447 670.122 267.621C667.879 270.795 664.6 273.207 660.283 274.857C656.009 276.465 650.762 277.27 644.541 277.27C639.632 277.27 635.4 276.91 631.846 276.19C628.333 275.513 625.011 274.455 621.88 273.017V260.131C625.223 261.697 628.968 263.051 633.115 264.193C637.305 265.336 641.261 265.907 644.985 265.907C649.894 265.907 653.428 265.146 655.586 263.622C657.744 262.056 658.823 259.983 658.823 257.401C658.823 255.878 658.379 254.524 657.49 253.339C656.644 252.112 655.036 250.863 652.666 249.594C650.339 248.282 646.911 246.716 642.383 244.896C637.939 243.119 634.194 241.342 631.147 239.564C628.101 237.787 625.794 235.65 624.229 233.153C622.663 230.614 621.88 227.377 621.88 223.441C621.88 217.221 624.334 212.502 629.243 209.286C634.194 206.028 640.732 204.398 648.857 204.398C653.174 204.398 657.236 204.843 661.045 205.731C664.896 206.578 668.662 207.826 672.344 209.477L667.646 220.712C664.473 219.315 661.278 218.173 658.062 217.284C654.888 216.353 651.65 215.888 648.35 215.888C644.499 215.888 641.558 216.48 639.526 217.665C637.537 218.85 636.543 220.543 636.543 222.743C636.543 224.394 637.03 225.79 638.003 226.933C638.976 228.075 640.648 229.218 643.018 230.36C645.43 231.503 648.773 232.921 653.047 234.613C657.236 236.221 660.854 237.914 663.901 239.691C666.991 241.426 669.36 243.563 671.011 246.103C672.661 248.642 673.486 251.921 673.486 255.941ZM717.603 204.398C723.866 204.398 729.24 205.689 733.726 208.271C738.211 210.852 741.66 214.512 744.072 219.252C746.484 223.992 747.69 229.662 747.69 236.264V244.262H700.781C700.951 251.075 702.77 256.322 706.24 260.004C709.753 263.686 714.661 265.526 720.967 265.526C725.452 265.526 729.473 265.103 733.027 264.257C736.624 263.368 740.327 262.077 744.136 260.385V272.509C740.623 274.159 737.048 275.365 733.408 276.127C729.769 276.889 725.41 277.27 720.332 277.27C713.434 277.27 707.362 275.937 702.114 273.271C696.909 270.562 692.826 266.542 689.863 261.21C686.943 255.878 685.483 249.255 685.483 241.342C685.483 233.471 686.816 226.785 689.482 221.283C692.148 215.782 695.894 211.592 700.718 208.715C705.542 205.837 711.17 204.398 717.603 204.398ZM717.603 215.634C712.905 215.634 709.097 217.157 706.177 220.204C703.299 223.251 701.606 227.715 701.099 233.598H733.091C733.049 230.085 732.456 226.975 731.313 224.267C730.213 221.558 728.521 219.442 726.235 217.919C723.993 216.396 721.115 215.634 717.603 215.634Z" fill="white"/>
</svg>
